<?xml version="1.0" standalone="no"?>
<!DOCTYPE svg PUBLIC "-//W3C//DTD SVG 20010904//EN"
 "http://www.w3.org/TR/2001/REC-SVG-20010904/DTD/svg10.dtd">
<svg version="1.0" xmlns="http://www.w3.org/2000/svg"
 width="1024.000000pt" height="1024.000000pt" viewBox="0 0 1024.000000 1024.000000"
 preserveAspectRatio="xMidYMid meet">

<g transform="translate(0.000000,1024.000000) scale(0.100000,-0.100000)"
fill="#000000" stroke="none">
<path d="M4525 8050 c-138 -11 -394 -61 -506 -99 -256 -86 -438 -200 -562
-350 -78 -95 -112 -153 -142 -243 -92 -278 -26 -532 192 -744 l73 -71 0 -360
c0 -399 3 -426 63 -505 38 -50 113 -94 175 -104 l42 -6 0 -188 0 -188 208
-201 207 -200 6 107 c4 59 7 118 8 130 1 21 10 16 79 -49 48 -45 101 -83 142
-103 62 -29 73 -31 211 -34 161 -4 225 7 307 55 24 14 124 102 223 196 l179
171 0 47 0 48 105 -6 c81 -5 125 -2 190 12 l84 17 198 -188 198 -189 6 -57 c7
-66 27 -97 134 -203 39 -38 334 -332 656 -651 321 -320 598 -588 614 -597 17
-8 57 -20 89 -27 217 -45 407 122 395 346 -8 126 -17 139 -411 529 -828 822
-970 961 -1001 978 -26 15 -46 18 -112 13 l-80 -5 -97 96 -97 97 66 44 c193
129 373 370 438 585 140 459 -46 961 -493 1339 -333 279 -803 480 -1267 542
-145 19 -383 26 -520 16z m440 -365 c528 -69 1098 -378 1325 -718 115 -174
154 -291 154 -472 0 -141 -16 -213 -74 -330 -102 -208 -280 -347 -525 -411
-82 -22 -124 -27 -235 -28 -243 -2 -405 56 -540 193 -112 113 -160 221 -160
356 1 147 48 256 164 371 65 65 98 89 166 122 125 60 194 76 335 76 66 1 142
-2 169 -6 l48 -8 -6 30 c-3 17 -24 68 -46 114 -98 205 -352 389 -642 465 -195
50 -463 53 -688 6 -151 -32 -270 -70 -525 -171 -107 -43 -198 -74 -201 -71 -8
8 49 109 90 160 45 57 174 150 269 195 141 68 320 117 487 135 92 10 331 5
435 -8z"/>
<path d="M5428 6611 c-111 -36 -199 -107 -250 -203 -34 -65 -33 -174 5 -249
35 -72 100 -132 184 -172 57 -26 81 -31 171 -35 108 -5 198 8 240 34 l22 14 0
299 0 298 -69 16 c-92 23 -229 21 -303 -2z"/>
<path d="M3860 4786 l0 -375 -22 -6 c-46 -14 -1622 -685 -1647 -702 -10 -6 76
-130 188 -272 327 -409 741 -727 1206 -924 234 -99 449 -159 735 -204 165 -25
680 -26 858 0 810 116 1526 516 1956 1091 l88 118 -40 41 c-22 23 -85 88 -139
144 -76 79 -114 110 -164 134 -59 29 -330 149 -864 384 -121 53 -262 116 -312
140 l-93 44 -2 367 -3 368 -200 -190 c-277 -261 -298 -277 -443 -316 -100 -27
-322 -29 -426 -4 -137 32 -199 80 -517 392 -81 79 -149 144 -153 144 -3 0 -6
-168 -6 -374z m635 -916 c65 -107 145 -241 179 -297 33 -57 64 -103 68 -103 4
0 21 20 37 44 30 43 231 376 231 382 0 2 16 28 35 58 19 30 93 157 165 282
l130 229 0 -239 0 -238 -102 -157 c-55 -86 -169 -259 -252 -386 -82 -126 -171
-263 -196 -302 l-47 -73 -168 258 c-93 141 -229 350 -302 464 l-133 206 0 233
0 233 118 -200 c65 -109 172 -287 237 -394z"/>
</g>
</svg>
